<svg xmlns="http://www.w3.org/2000/svg" xmlns:xlink="http://www.w3.org/1999/xlink" width="200" height="300" viewBox="0 0 200 300"><rect width="100%" height="100%" fill="#808080"/><path d="M43.23 148.64L43.23 148.64Q43.23 149.99 42.78 151.12Q42.33 152.25 41.52 153.07Q40.70 153.88 39.55 154.34Q38.40 154.79 37.00 154.79L37.00 154.79L32.32 154.79L32.32 142.49L37.00 142.49Q38.40 142.49 39.55 142.95Q40.70 143.40 41.52 144.22Q42.33 145.03 42.78 146.16Q43.23 147.29 43.23 148.64ZM40.89 148.64L40.89 148.64Q40.89 147.63 40.62 146.83Q40.35 146.02 39.85 145.47Q39.34 144.91 38.62 144.61Q37.90 144.31 37.00 144.31L37.00 144.31L34.61 144.31L34.61 152.97L37.00 152.97Q37.90 152.97 38.62 152.67Q39.34 152.37 39.85 151.81Q40.35 151.26 40.62 150.45Q40.89 149.65 40.89 148.64ZM48.77 145.93L48.77 145.93Q49.74 145.93 50.54 146.24Q51.33 146.56 51.90 147.14Q52.46 147.71 52.77 148.55Q53.08 149.38 53.08 150.41L53.08 150.41Q53.08 151.45 52.77 152.28Q52.46 153.11 51.90 153.70Q51.33 154.28 50.54 154.60Q49.74 154.91 48.77 154.91L48.77 154.91Q47.80 154.91 47.00 154.60Q46.20 154.28 45.63 153.70Q45.07 153.11 44.76 152.28Q44.45 151.45 44.45 150.41L44.45 150.41Q44.45 149.38 44.76 148.55Q45.07 147.71 45.63 147.14Q46.20 146.56 47.00 146.24Q47.80 145.93 48.77 145.93ZM48.77 153.30L48.77 153.30Q49.86 153.30 50.39 152.57Q50.91 151.84 50.91 150.43L50.91 150.43Q50.91 149.01 50.39 148.27Q49.86 147.54 48.77 147.54L48.77 147.54Q47.67 147.54 47.14 148.28Q46.61 149.02 46.61 150.43L46.61 150.43Q46.61 151.83 47.14 152.56Q47.67 153.30 48.77 153.30ZM60.16 152.20L60.16 148.29Q59.80 147.86 59.38 147.68Q58.96 147.50 58.47 147.50L58.47 147.50Q58.00 147.50 57.61 147.68Q57.23 147.86 56.96 148.22Q56.69 148.58 56.54 149.14Q56.40 149.69 56.40 150.45L56.40 150.45Q56.40 151.22 56.52 151.75Q56.65 152.28 56.88 152.61Q57.10 152.95 57.44 153.10Q57.77 153.25 58.18 153.25L58.18 153.25Q58.83 153.25 59.29 152.98Q59.75 152.70 60.16 152.20L60.16 152.20ZM60.16 142.15L62.26 142.15L62.26 154.79L60.97 154.79Q60.56 154.79 60.45 154.40L60.45 154.40L60.27 153.56Q59.74 154.17 59.06 154.54Q58.37 154.91 57.46 154.91L57.46 154.91Q56.75 154.91 56.15 154.62Q55.56 154.32 55.13 153.75Q54.70 153.19 54.47 152.35Q54.23 151.52 54.23 150.45L54.23 150.45Q54.23 149.48 54.50 148.65Q54.76 147.82 55.25 147.20Q55.74 146.59 56.43 146.25Q57.12 145.90 57.98 145.90L57.98 145.90Q58.71 145.90 59.23 146.13Q59.75 146.36 60.16 146.75L60.16 146.75L60.16 142.15ZM68.94 152.53L68.94 151.06Q68.03 151.11 67.41 151.22Q66.79 151.33 66.41 151.51Q66.04 151.69 65.88 151.93Q65.72 152.17 65.72 152.45L65.72 152.45Q65.72 153.00 66.04 153.24Q66.37 153.48 66.90 153.48L66.90 153.48Q67.54 153.48 68.01 153.24Q68.49 153.01 68.94 152.53L68.94 152.53ZM64.50 147.95L64.13 147.28Q65.63 145.90 67.75 145.90L67.75 145.90Q68.51 145.90 69.12 146.15Q69.72 146.40 70.14 146.85Q70.55 147.30 70.77 147.92Q70.99 148.54 70.99 149.28L70.99 149.28L70.99 154.79L70.03 154.79Q69.74 154.79 69.57 154.70Q69.41 154.61 69.32 154.34L69.32 154.34L69.13 153.71Q68.80 154.00 68.49 154.23Q68.17 154.45 67.83 154.61Q67.49 154.76 67.11 154.84Q66.72 154.92 66.25 154.92L66.25 154.92Q65.70 154.92 65.23 154.77Q64.76 154.62 64.42 154.33Q64.08 154.03 63.90 153.59Q63.71 153.15 63.71 152.56L63.71 152.56Q63.71 152.23 63.82 151.90Q63.93 151.57 64.18 151.28Q64.43 150.98 64.83 150.71Q65.23 150.45 65.81 150.26Q66.40 150.06 67.17 149.94Q67.94 149.81 68.94 149.79L68.94 149.79L68.94 149.28Q68.94 148.40 68.56 147.98Q68.19 147.56 67.48 147.56L67.48 147.56Q66.97 147.56 66.64 147.68Q66.30 147.80 66.05 147.95Q65.79 148.10 65.58 148.22Q65.38 148.33 65.12 148.33L65.12 148.33Q64.90 148.33 64.75 148.22Q64.59 148.10 64.50 147.95L64.50 147.95ZM73.03 146.06L75.13 146.06L75.13 155.08Q75.13 155.65 74.98 156.15Q74.84 156.66 74.51 157.03Q74.18 157.41 73.65 157.63Q73.12 157.85 72.35 157.85L72.35 157.85Q72.06 157.85 71.80 157.81Q71.55 157.77 71.27 157.68L71.27 157.68L71.35 156.55Q71.38 156.38 71.49 156.34Q71.60 156.29 71.91 156.29L71.91 156.29Q72.23 156.29 72.44 156.23Q72.66 156.16 72.79 156.02Q72.91 155.88 72.97 155.65Q73.03 155.42 73.03 155.08L73.03 155.08L73.03 146.06ZM75.42 143.52L75.42 143.52Q75.42 143.80 75.31 144.03Q75.20 144.27 75.02 144.45Q74.84 144.63 74.59 144.73Q74.33 144.84 74.05 144.84L74.05 144.84Q73.78 144.84 73.54 144.73Q73.31 144.63 73.13 144.45Q72.95 144.27 72.84 144.03Q72.74 143.80 72.74 143.52L72.74 143.52Q72.74 143.24 72.84 143.00Q72.95 142.75 73.13 142.57Q73.31 142.39 73.54 142.29Q73.78 142.18 74.05 142.18L74.05 142.18Q74.33 142.18 74.59 142.29Q74.84 142.39 75.02 142.57Q75.20 142.75 75.31 143.00Q75.42 143.24 75.42 143.52ZM87.20 147.01L86.73 147.76Q86.64 147.90 86.55 147.96Q86.46 148.01 86.31 148.01L86.31 148.01Q86.16 148.01 85.98 147.93Q85.81 147.84 85.58 147.73Q85.35 147.63 85.06 147.54Q84.76 147.46 84.36 147.46L84.36 147.46Q83.74 147.46 83.39 147.72Q83.04 147.99 83.04 148.41L83.04 148.41Q83.04 148.69 83.22 148.88Q83.40 149.07 83.71 149.22Q84.01 149.36 84.39 149.48Q84.77 149.59 85.17 149.73Q85.56 149.86 85.95 150.04Q86.33 150.21 86.63 150.48Q86.93 150.75 87.11 151.12Q87.30 151.50 87.30 152.02L87.30 152.02Q87.30 152.65 87.07 153.18Q86.85 153.71 86.40 154.10Q85.96 154.49 85.31 154.70Q84.66 154.92 83.81 154.92L83.81 154.92Q83.36 154.92 82.93 154.84Q82.50 154.76 82.11 154.62Q81.71 154.47 81.38 154.28Q81.04 154.08 80.79 153.85L80.79 153.85L81.27 153.05Q81.36 152.91 81.49 152.83Q81.62 152.75 81.81 152.75L81.81 152.75Q82.01 152.75 82.18 152.86Q82.36 152.98 82.59 153.10Q82.82 153.23 83.13 153.34Q83.44 153.45 83.91 153.45L83.91 153.45Q84.29 153.45 84.56 153.36Q84.82 153.27 85.00 153.13Q85.17 152.98 85.25 152.79Q85.33 152.60 85.33 152.40L85.33 152.40Q85.33 152.09 85.15 151.90Q84.97 151.70 84.67 151.56Q84.36 151.41 83.98 151.30Q83.59 151.18 83.19 151.05Q82.78 150.91 82.40 150.73Q82.01 150.54 81.71 150.26Q81.41 149.98 81.22 149.58Q81.04 149.17 81.04 148.59L81.04 148.59Q81.04 148.05 81.25 147.57Q81.47 147.08 81.88 146.72Q82.29 146.36 82.91 146.15Q83.52 145.93 84.33 145.93L84.33 145.93Q85.23 145.93 85.97 146.23Q86.71 146.52 87.20 147.01L87.20 147.01ZM88.90 142.15L91.00 142.15L91.00 154.79L88.90 154.79L88.90 142.15ZM93.17 146.06L95.28 146.06L95.28 154.79L93.17 154.79L93.17 146.06ZM95.57 143.52L95.57 143.52Q95.57 143.80 95.46 144.03Q95.35 144.27 95.16 144.45Q94.98 144.63 94.73 144.73Q94.49 144.84 94.21 144.84L94.21 144.84Q93.94 144.84 93.69 144.73Q93.45 144.63 93.27 144.45Q93.09 144.27 92.99 144.03Q92.88 143.80 92.88 143.52L92.88 143.52Q92.88 143.24 92.99 143.00Q93.09 142.75 93.27 142.57Q93.45 142.39 93.69 142.29Q93.94 142.18 94.21 142.18L94.21 142.18Q94.49 142.18 94.73 142.29Q94.98 142.39 95.16 142.57Q95.35 142.75 95.46 143.00Q95.57 143.24 95.57 143.52ZM97.42 142.15L99.52 142.15L99.52 149.39L99.91 149.39Q100.12 149.39 100.25 149.33Q100.37 149.28 100.50 149.11L100.50 149.11L102.66 146.43Q102.80 146.25 102.97 146.16Q103.13 146.06 103.40 146.06L103.40 146.06L105.32 146.06L102.61 149.30Q102.32 149.69 101.98 149.89L101.98 149.89Q102.15 150.02 102.30 150.19Q102.44 150.36 102.56 150.55L102.56 150.55L105.47 154.79L103.57 154.79Q103.33 154.79 103.15 154.70Q102.97 154.62 102.85 154.41L102.85 154.41L100.62 151.11Q100.51 150.91 100.38 150.85Q100.25 150.79 100.00 150.79L100.00 150.79L99.52 150.79L99.52 154.79L97.42 154.79L97.42 142.15ZM111.92 146.06L114.02 146.06L114.02 154.79L112.74 154.79Q112.32 154.79 112.21 154.40L112.21 154.40L112.07 153.71Q111.53 154.25 110.88 154.59Q110.24 154.92 109.36 154.92L109.36 154.92Q108.65 154.92 108.10 154.68Q107.55 154.44 107.18 154.00Q106.80 153.55 106.61 152.95Q106.42 152.34 106.42 151.61L106.42 151.61L106.42 146.06L108.52 146.06L108.52 151.61Q108.52 152.41 108.89 152.84Q109.26 153.28 110.00 153.28L110.00 153.28Q110.54 153.28 111.02 153.04Q111.50 152.80 111.92 152.37L111.92 152.37L111.92 146.06ZM126.49 146.06L126.49 146.93Q126.49 147.15 126.41 147.37Q126.34 147.58 126.21 147.71L126.21 147.71L122.07 153.17L126.36 153.17L126.36 154.79L119.63 154.79L119.63 153.91Q119.63 153.77 119.70 153.57Q119.77 153.37 119.90 153.19L119.90 153.19L124.08 147.67L119.88 147.67L119.88 146.06L126.49 146.06ZM132.64 152.53L132.64 151.06Q131.73 151.11 131.11 151.22Q130.49 151.33 130.12 151.51Q129.75 151.69 129.58 151.93Q129.42 152.17 129.42 152.45L129.42 152.45Q129.42 153.00 129.75 153.24Q130.08 153.48 130.60 153.48L130.60 153.48Q131.25 153.48 131.72 153.24Q132.19 153.01 132.64 152.53L132.64 152.53ZM128.21 147.95L127.83 147.28Q129.34 145.90 131.45 145.90L131.45 145.90Q132.22 145.90 132.82 146.15Q133.43 146.40 133.84 146.85Q134.26 147.30 134.48 147.92Q134.69 148.54 134.69 149.28L134.69 149.28L134.69 154.79L133.74 154.79Q133.44 154.79 133.28 154.70Q133.12 154.61 133.03 154.34L133.03 154.34L132.84 153.71Q132.51 154.00 132.19 154.23Q131.88 154.45 131.54 154.61Q131.20 154.76 130.81 154.84Q130.43 154.92 129.96 154.92L129.96 154.92Q129.41 154.92 128.94 154.77Q128.47 154.62 128.13 154.33Q127.79 154.03 127.60 153.59Q127.42 153.15 127.42 152.56L127.42 152.56Q127.42 152.23 127.53 151.90Q127.64 151.57 127.89 151.28Q128.14 150.98 128.54 150.71Q128.94 150.45 129.52 150.26Q130.10 150.06 130.88 149.94Q131.65 149.81 132.64 149.79L132.64 149.79L132.64 149.28Q132.64 148.40 132.27 147.98Q131.90 147.56 131.19 147.56L131.19 147.56Q130.68 147.56 130.35 147.68Q130.01 147.80 129.75 147.95Q129.50 148.10 129.29 148.22Q129.08 148.33 128.83 148.33L128.83 148.33Q128.61 148.33 128.45 148.22Q128.30 148.10 128.21 147.95L128.21 147.95ZM143.51 154.79L141.41 154.79L141.41 147.65L140.65 147.53Q140.40 147.48 140.26 147.35Q140.11 147.23 140.11 147.00L140.11 147.00L140.11 146.14L141.41 146.14L141.41 145.50Q141.41 144.75 141.63 144.15Q141.86 143.56 142.28 143.14Q142.70 142.72 143.30 142.50Q143.91 142.28 144.66 142.28L144.66 142.28Q145.27 142.28 145.79 142.44L145.79 142.44L145.74 143.50Q145.73 143.62 145.67 143.69Q145.62 143.76 145.52 143.80Q145.42 143.84 145.29 143.85Q145.16 143.86 145.02 143.86L145.02 143.86Q144.65 143.86 144.35 143.94Q144.06 144.02 143.86 144.22Q143.65 144.42 143.55 144.75Q143.44 145.08 143.44 145.56L143.44 145.56L143.44 146.14L145.71 146.14L145.71 147.64L143.51 147.64L143.51 154.79ZM146.96 146.06L149.07 146.06L149.07 154.79L146.96 154.79L146.96 146.06ZM149.36 143.52L149.36 143.52Q149.36 143.80 149.24 144.03Q149.13 144.27 148.95 144.45Q148.77 144.63 148.52 144.73Q148.28 144.84 148.00 144.84L148.00 144.84Q147.72 144.84 147.48 144.73Q147.24 144.63 147.06 144.45Q146.88 144.27 146.78 144.03Q146.67 143.80 146.67 143.52L146.67 143.52Q146.67 143.24 146.78 143.00Q146.88 142.75 147.06 142.57Q147.24 142.39 147.48 142.29Q147.72 142.18 148.00 142.18L148.00 142.18Q148.28 142.18 148.52 142.29Q148.77 142.39 148.95 142.57Q149.13 142.75 149.24 143.00Q149.36 143.24 149.36 143.52ZM151.23 142.15L153.33 142.15L153.33 154.79L151.23 154.79L151.23 142.15ZM157.53 154.79L155.43 154.79L155.43 146.06L156.72 146.06Q157.12 146.06 157.25 146.45L157.25 146.45L157.39 147.09Q157.62 146.84 157.87 146.63Q158.12 146.41 158.40 146.26Q158.69 146.11 159.02 146.02Q159.34 145.93 159.73 145.93L159.73 145.93Q160.56 145.93 161.09 146.37Q161.62 146.82 161.88 147.56L161.88 147.56Q162.09 147.13 162.39 146.82Q162.70 146.51 163.07 146.31Q163.43 146.12 163.84 146.02Q164.26 145.93 164.67 145.93L164.67 145.93Q165.39 145.93 165.96 146.15Q166.52 146.37 166.90 146.80Q167.28 147.22 167.48 147.83Q167.68 148.44 167.68 149.24L167.68 149.24L167.68 154.79L165.58 154.79L165.58 149.24Q165.58 148.40 165.22 147.98Q164.85 147.56 164.15 147.56L164.15 147.56Q163.82 147.56 163.55 147.67Q163.27 147.78 163.06 147.99Q162.85 148.20 162.73 148.51Q162.62 148.83 162.62 149.24L162.62 149.24L162.62 154.79L160.51 154.79L160.51 149.24Q160.51 148.36 160.15 147.96Q159.80 147.56 159.12 147.56L159.12 147.56Q158.66 147.56 158.27 147.79Q157.87 148.01 157.53 148.40L157.53 148.40L157.53 154.79Z" fill="#808080"/></svg>